<svg width="312" height="496" xmlns="http://www.w3.org/2000/svg" xmlns:xlink="http://www.w3.org/1999/xlink"
  overflow="hidden" style='fill:#fff;fill-opacity:0.1'>
  <defs>
    <clipPath id="clip0">
      <rect x="30" y="11" width="312" height="496" />
    </clipPath>
  </defs>
  <g clip-path="url(#clip0)" transform="translate(-30 -11)">
    <path
      d="M161 162C161 112.847 201.294 73 251 73 300.706 73 341 112.847 341 162 341 211.153 300.706 251 251 251 201.294 251 161 211.153 161 162Z"
      fill-rule="evenodd" />
    <path
      d="M89 98.5C89 76.1325 107.132 58 129.5 58 151.868 58 170 76.1325 170 98.5 170 120.868 151.868 139 129.5 139 107.132 139 89 120.868 89 98.5Z"
      fill-rule="evenodd" />
    <path
      d="M30 208.5C30 173.43 58.6538 145 94 145 129.346 145 158 173.43 158 208.5 158 243.57 129.346 272 94 272 58.6538 272 30 243.57 30 208.5Z"
      fill-rule="evenodd" />
    <path
      d="M147 265.5C147 248.655 160.655 235 177.5 235 194.345 235 208 248.655 208 265.5 208 282.345 194.345 296 177.5 296 160.655 296 147 282.345 147 265.5Z"
      fill-rule="evenodd" />
    <path
      d="M196 326C196 300.595 216.819 280 242.5 280 268.181 280 289 300.595 289 326 289 351.405 268.181 372 242.5 372 216.819 372 196 351.405 196 326Z"
      fill-rule="evenodd" />
    <path
      d="M263 40C263 23.9837 275.984 11 292 11 308.016 11 321 23.9837 321 40 321 56.0163 308.016 69 292 69 275.984 69 263 56.0163 263 40Z"
      fill-rule="evenodd" />
    <path
      d="M180 40C180 23.9837 193.208 11 209.5 11 225.792 11 239 23.9837 239 40 239 56.0163 225.792 69 209.5 69 193.208 69 180 56.0163 180 40Z"
      fill-rule="evenodd" />
    <path
      d="M277 280C277 263.984 290.208 251 306.5 251 322.792 251 336 263.984 336 280 336 296.016 322.792 309 306.5 309 290.208 309 277 296.016 277 280Z"
      fill-rule="evenodd" />
    <path
      d="M247 411C247 385.595 267.819 365 293.5 365 319.181 365 340 385.595 340 411 340 436.405 319.181 457 293.5 457 267.819 457 247 436.405 247 411Z"
      fill-rule="evenodd" />
    <path
      d="M85 429C85 386.474 119.698 352 162.5 352 205.302 352 240 386.474 240 429 240 471.526 205.302 506 162.5 506 119.698 506 85 471.526 85 429Z"
      fill-rule="evenodd" />
    <path
      d="M94 318C94 299.775 108.775 285 127 285 145.225 285 160 299.775 160 318 160 336.225 145.225 351 127 351 108.775 351 94 336.225 94 318Z"
      fill-rule="evenodd" />
  </g>
</svg>